<svg  viewBox="0 0 559 440" fill="none" xmlns="http://www.w3.org/2000/svg">
<g id="deskGuyLaptop" clip-path="url(#clip0_2_2)">
<path id="backcloud" d="M472.77 382.252C500.967 359.01 514.434 319.953 506.003 282.695C505.793 281.77 505.572 280.846 505.339 279.924C499.75 257.809 485.922 236.79 465.767 229.723C448.844 223.79 430.373 228.352 412.718 225.993C378.061 221.361 351.192 191.013 332.287 159.239C313.381 127.464 298.851 91.8973 273.73 65.647C232.321 22.3778 164.773 13.0619 113.432 41.2269C62.0914 69.392 29.3878 131.879 30.7826 194.154C32.1773 256.43 66.3382 315.97 115.948 347.56C134.173 359.165 155.252 367.386 176.229 364.509C194.431 362.013 210.97 351.428 229.086 348.286C257.569 343.345 285.87 357.282 310.506 373.523C335.142 389.765 358.938 409.015 386.933 416.544C414.116 423.855 447.793 402.841 472.77 382.252Z" fill="#F2F2F2"/>
<path id="table" d="M-2.28882e-05 333.919C6.17188 341.834 12.8475 349.272 19.978 356.179L539.022 356.947C546.152 350.041 552.828 342.603 559 334.688L-2.28882e-05 333.919Z" fill="#3F3D56"/>
<g id="laptop">
<path id="laptop_2" d="M351.981 262.644V328.541C351.981 329.38 352.29 330.186 352.838 330.779C353.387 331.373 354.131 331.707 354.907 331.708H445.138C445.914 331.707 446.658 331.373 447.207 330.779C447.755 330.186 448.064 329.38 448.064 328.541V262.644C448.062 261.805 447.753 261.001 447.205 260.408C446.656 259.815 445.913 259.482 445.138 259.481H354.907C354.132 259.482 353.388 259.815 352.84 260.408C352.291 261.001 351.982 261.805 351.981 262.644V262.644Z" fill="#3F3D56"/>
<path id="laptopbg" d="M354.097 263.464V327.728C354.098 328.176 354.263 328.607 354.556 328.924C354.849 329.241 355.247 329.42 355.661 329.42H444.387C444.801 329.42 445.199 329.241 445.492 328.924C445.785 328.607 445.95 328.176 445.951 327.728V263.464C445.951 263.015 445.786 262.584 445.493 262.266C445.2 261.948 444.802 261.769 444.387 261.768H355.661C355.246 261.769 354.848 261.948 354.555 262.266C354.262 262.584 354.097 263.015 354.097 263.464V263.464Z" fill="#6C63FF"/>
<g id="laptopscreen">
<path id="laptopWordOne" d="M369.462 275.827H367.442C366.829 275.827 366.333 276.365 366.333 277.028C366.333 277.69 366.829 278.228 367.442 278.228H369.462C370.074 278.228 370.571 277.69 370.571 277.028C370.571 276.365 370.074 275.827 369.462 275.827Z" fill="white"/>
<path id="laptopWordTwo" d="M386.283 275.627H373.727C373.114 275.627 372.617 276.165 372.617 276.827C372.617 277.49 373.114 278.028 373.727 278.028H386.283C386.896 278.028 387.392 277.49 387.392 276.827C387.392 276.165 386.896 275.627 386.283 275.627Z" fill="white"/>
<path id="laptopWordThree" d="M392.568 275.827H390.548C389.935 275.827 389.439 276.365 389.439 277.028C389.439 277.69 389.935 278.228 390.548 278.228H392.568C393.181 278.228 393.677 277.69 393.677 277.028C393.677 276.365 393.181 275.827 392.568 275.827Z" fill="white"/>
<path id="laptopWordFour" d="M399.115 275.827H397.095C396.482 275.827 395.985 276.365 395.985 277.028C395.985 277.69 396.482 278.228 397.095 278.228H399.115C399.727 278.228 400.224 277.69 400.224 277.028C400.224 276.365 399.727 275.827 399.115 275.827Z" fill="white"/>
<path id="laptopWordFive" d="M417.091 275.627H404.535C403.922 275.627 403.426 276.165 403.426 276.827C403.426 277.49 403.922 278.028 404.535 278.028H417.091C417.704 278.028 418.2 277.49 418.2 276.827C418.2 276.165 417.704 275.627 417.091 275.627Z" fill="white"/>
<path id="laptopWordSix" d="M375.624 281.245H373.603C372.991 281.245 372.494 281.783 372.494 282.446C372.494 283.109 372.991 283.646 373.603 283.646H375.624C376.236 283.646 376.733 283.109 376.733 282.446C376.733 281.783 376.236 281.245 375.624 281.245Z" fill="white"/>
<path id="laptopWordSeven" d="M392.445 281.045H379.888C379.276 281.045 378.779 281.583 378.779 282.246C378.779 282.908 379.276 283.446 379.888 283.446H392.445C393.057 283.446 393.554 282.908 393.554 282.246C393.554 281.583 393.057 281.045 392.445 281.045Z" fill="white"/>
<path id="laptopWordEight" d="M398.73 281.245H396.709C396.097 281.245 395.6 281.783 395.6 282.446C395.6 283.109 396.097 283.646 396.709 283.646H398.73C399.342 283.646 399.839 283.109 399.839 282.446C399.839 281.783 399.342 281.245 398.73 281.245Z" fill="white"/>
<path id="laptopWordNine" d="M405.276 281.245H403.256C402.644 281.245 402.147 281.783 402.147 282.446C402.147 283.109 402.644 283.646 403.256 283.646H405.276C405.889 283.646 406.385 283.109 406.385 282.446C406.385 281.783 405.889 281.245 405.276 281.245Z" fill="white"/>
<path id="laptopWordTen" d="M423.253 281.045H410.696C410.084 281.045 409.587 281.583 409.587 282.246C409.587 282.908 410.084 283.446 410.696 283.446H423.253C423.865 283.446 424.362 282.908 424.362 282.246C424.362 281.583 423.865 281.045 423.253 281.045Z" fill="white"/>
<path id="laptopWordEle" d="M381.785 286.663H379.765C379.152 286.663 378.656 287.201 378.656 287.864C378.656 288.527 379.152 289.064 379.765 289.064H381.785C382.398 289.064 382.894 288.527 382.894 287.864C382.894 287.201 382.398 286.663 381.785 286.663Z" fill="white"/>
<path id="laptopWordTwelfe" d="M398.606 286.463H386.05C385.437 286.463 384.941 287.001 384.941 287.664C384.941 288.326 385.437 288.864 386.05 288.864H398.606C399.219 288.864 399.715 288.326 399.715 287.664C399.715 287.001 399.219 286.463 398.606 286.463Z" fill="white"/>
<path id="laptopWordThirteen" d="M404.891 286.663H402.871C402.258 286.663 401.762 287.201 401.762 287.864C401.762 288.527 402.258 289.064 402.871 289.064H404.891C405.504 289.064 406 288.527 406 287.864C406 287.201 405.504 286.663 404.891 286.663Z" fill="white"/>
<path id="laptopWordFourteen" d="M411.438 286.663H409.418C408.805 286.663 408.309 287.201 408.309 287.864C408.309 288.527 408.805 289.064 409.418 289.064H411.438C412.051 289.064 412.547 288.527 412.547 287.864C412.547 287.201 412.051 286.663 411.438 286.663Z" fill="white"/>
<path id="laptopWordFift" d="M429.415 286.463H416.858C416.245 286.463 415.749 287.001 415.749 287.664C415.749 288.326 416.245 288.864 416.858 288.864H429.415C430.027 288.864 430.524 288.326 430.524 287.664C430.524 287.001 430.027 286.463 429.415 286.463Z" fill="white"/>
<path id="laptopWordsixte" d="M404.768 296.034H392.211C391.599 296.034 391.102 296.572 391.102 297.234C391.102 297.897 391.599 298.435 392.211 298.435H404.768C405.381 298.435 405.877 297.897 405.877 297.234C405.877 296.572 405.381 296.034 404.768 296.034Z" fill="white"/>
<path id="laptopWordSeventy" d="M417.6 292.081H415.579C414.967 292.081 414.47 292.619 414.47 293.282C414.47 293.945 414.967 294.482 415.579 294.482H417.6C418.212 294.482 418.709 293.945 418.709 293.282C418.709 292.619 418.212 292.081 417.6 292.081Z" fill="white"/>
<path id="laptopWordEightte" d="M411.053 292.081H409.033C408.42 292.081 407.924 292.619 407.924 293.282C407.924 293.945 408.42 294.482 409.033 294.482H411.053C411.666 294.482 412.162 293.945 412.162 293.282C412.162 292.619 411.666 292.081 411.053 292.081Z" fill="white"/>
<path id="laptopWordNineteen" d="M404.768 291.881H392.211C391.599 291.881 391.102 292.419 391.102 293.082C391.102 293.745 391.599 294.282 392.211 294.282H404.768C405.381 294.282 405.877 293.745 405.877 293.082C405.877 292.419 405.381 291.881 404.768 291.881Z" fill="white"/>
<path id="laptopWordTwenty" d="M387.947 292.081H385.927C385.314 292.081 384.817 292.619 384.817 293.282C384.817 293.945 385.314 294.482 385.927 294.482H387.947C388.559 294.482 389.056 293.945 389.056 293.282C389.056 292.619 388.559 292.081 387.947 292.081Z" fill="white"/>
<path id="lastLaptopWord" d="M417.091 313.826H404.535C403.922 313.826 403.426 314.364 403.426 315.026C403.426 315.689 403.922 316.227 404.535 316.227H417.091C417.704 316.227 418.2 315.689 418.2 315.026C418.2 314.364 417.704 313.826 417.091 313.826Z" fill="white"/>
<path id="Vector" d="M411.053 297.372H409.033C408.42 297.372 407.924 297.909 407.924 298.572C407.924 299.235 408.42 299.772 409.033 299.772H411.053C411.666 299.772 412.162 299.235 412.162 298.572C412.162 297.909 411.666 297.372 411.053 297.372Z" fill="white"/>
</g>
</g>
<g id="desktop">
<g id="desktopScreen">
<path id="monitorDesk" d="M55.8844 140.676V284.657C55.8857 286.492 56.5598 288.251 57.7586 289.548C58.9575 290.846 60.583 291.575 62.2784 291.577H259.43C261.125 291.575 262.751 290.846 263.95 289.548C265.148 288.251 265.822 286.492 265.824 284.657V140.676C265.82 138.843 265.145 137.086 263.946 135.79C262.748 134.495 261.124 133.766 259.43 133.763H62.2784C60.5845 133.766 58.9605 134.495 57.762 135.79C56.5636 137.086 55.8884 138.843 55.8844 140.676Z" fill="#3F3D56"/>
<path id="Vector_2" d="M136.187 259.484V338.34H187.233V259.484C187.234 258.917 187.067 258.364 186.756 257.907C186.445 257.451 186.008 257.114 185.507 256.946C185.271 256.862 185.024 256.82 184.775 256.823H138.652C138.329 256.823 138.009 256.891 137.71 257.024C137.411 257.158 137.139 257.354 136.91 257.601C136.681 257.848 136.5 258.141 136.375 258.464C136.251 258.787 136.187 259.134 136.187 259.484V259.484ZM156.108 286.579C156.122 285.025 156.702 283.539 157.722 282.444C158.742 281.35 160.121 280.736 161.557 280.736C162.994 280.736 164.372 281.35 165.393 282.444C166.413 283.539 166.993 285.025 167.007 286.579V295.729C166.999 297.288 166.422 298.78 165.401 299.88C164.38 300.979 162.998 301.596 161.557 301.596C160.117 301.596 158.735 300.979 157.714 299.88C156.693 298.78 156.116 297.288 156.108 295.729V286.579Z" fill="#2F2E41"/>
<path id="Vector_3" d="M60.5094 142.467V282.881C60.511 283.861 60.8715 284.801 61.512 285.494C62.1526 286.187 63.0209 286.577 63.9267 286.579H257.789C258.694 286.577 259.563 286.187 260.203 285.494C260.844 284.801 261.204 283.861 261.206 282.881V142.467C261.206 141.486 260.846 140.544 260.205 139.849C259.565 139.155 258.695 138.763 257.789 138.761H63.9267C63.0198 138.763 62.1506 139.155 61.51 139.849C60.8694 140.544 60.5095 141.486 60.5094 142.467Z" fill="white"/>
<path id="desktopSentenceLast" d="M200.773 233.902H132.777C131.496 233.902 130.458 235.026 130.458 236.412V239.732C130.458 241.118 131.496 242.241 132.777 242.241H200.773C202.054 242.241 203.092 241.118 203.092 239.732V236.412C203.092 235.026 202.054 233.902 200.773 233.902Z" fill="#E6E6E6"/>
<path id="desktopSentenceMid" d="M200.773 217.224H132.777C131.496 217.224 130.458 218.348 130.458 219.734V223.053C130.458 224.439 131.496 225.563 132.777 225.563H200.773C202.054 225.563 203.092 224.439 203.092 223.053V219.734C203.092 218.348 202.054 217.224 200.773 217.224Z" fill="#E6E6E6"/>
<path id="desktopSentenceTop" d="M182.473 200.546H151.077C149.797 200.546 148.758 201.67 148.758 203.056V206.375C148.758 207.761 149.797 208.885 151.077 208.885H182.473C183.754 208.885 184.792 207.761 184.792 206.375V203.056C184.792 201.67 183.754 200.546 182.473 200.546Z" fill="#6C63FF"/>
<path id="Vector_4" d="M242.703 144.359H232.33C232.125 144.364 231.93 144.456 231.787 144.614C231.644 144.773 231.563 144.986 231.563 145.208C231.563 145.43 231.644 145.643 231.787 145.802C231.93 145.961 232.125 146.053 232.33 146.058H242.703C242.909 146.055 243.106 145.964 243.251 145.805C243.396 145.646 243.477 145.432 243.477 145.208C243.477 144.985 243.396 144.771 243.251 144.612C243.106 144.453 242.909 144.362 242.703 144.359Z" fill="#3F3D56"/>
<path id="Vector_5" d="M242.703 150.74H232.33C232.125 150.746 231.93 150.837 231.787 150.996C231.644 151.155 231.563 151.368 231.563 151.59C231.563 151.812 231.644 152.025 231.787 152.184C231.93 152.343 232.125 152.434 232.33 152.44H242.703C242.909 152.436 243.106 152.346 243.251 152.187C243.396 152.028 243.477 151.813 243.477 151.59C243.477 151.367 243.396 151.152 243.251 150.993C243.106 150.834 242.909 150.744 242.703 150.74V150.74Z" fill="#3F3D56"/>
<path id="CloseButtonSvg" d="M82.4492 152.556C84.784 152.556 86.6767 150.462 86.6767 147.879C86.6767 145.296 84.784 143.202 82.4492 143.202C80.1144 143.202 78.2217 145.296 78.2217 147.879C78.2217 150.462 80.1144 152.556 82.4492 152.556Z" fill="#3F3D56"/>
<path id="expandButtonSvg" d="M111.657 152.556C113.992 152.556 115.885 150.462 115.885 147.879C115.885 145.296 113.992 143.202 111.657 143.202C109.323 143.202 107.43 145.296 107.43 147.879C107.43 150.462 109.323 152.556 111.657 152.556Z" fill="#3F3D56"/>
<path id="closebuttonsvg" d="M97.0533 152.556C99.3881 152.556 101.281 150.462 101.281 147.879C101.281 145.296 99.3881 143.202 97.0533 143.202C94.7186 143.202 92.8258 145.296 92.8258 147.879C92.8258 150.462 94.7186 152.556 97.0533 152.556Z" fill="#3F3D56"/>
<path id="Vector_6" d="M242.703 147.55H232.33C232.125 147.554 231.93 147.646 231.786 147.805C231.643 147.964 231.562 148.177 231.562 148.399C231.562 148.621 231.643 148.835 231.786 148.993C231.93 149.152 232.125 149.244 232.33 149.249H242.703C242.91 149.246 243.107 149.155 243.252 148.996C243.397 148.837 243.479 148.623 243.479 148.399C243.479 148.176 243.397 147.961 243.252 147.802C243.107 147.643 242.91 147.552 242.703 147.55V147.55Z" fill="#3F3D56"/>
<path id="Vector_7" d="M251.497 158.104H70.1014C69.9128 158.099 69.7334 158.015 69.6015 157.869C69.4697 157.723 69.3959 157.527 69.3959 157.323C69.3959 157.119 69.4697 156.923 69.6015 156.777C69.7334 156.631 69.9128 156.547 70.1014 156.542H251.497C251.686 156.547 251.865 156.631 251.997 156.777C252.129 156.923 252.203 157.119 252.203 157.323C252.203 157.527 252.129 157.723 251.997 157.869C251.865 158.015 251.686 158.099 251.497 158.104V158.104Z" fill="#3F3D56"/>
</g>
</g>
<g id="cofeeCup">
<path id="cup" d="M517.79 338.863C517.529 339.837 517.033 340.681 516.374 341.272C515.715 341.863 514.926 342.171 514.122 342.153L498.405 341.635C497.595 341.615 496.811 341.259 496.171 340.622C495.532 339.984 495.071 339.098 494.857 338.097L492.633 307.648C491.843 308.105 490.984 308.331 490.118 308.309C489.366 308.285 488.624 308.071 487.936 307.68C487.248 307.289 486.627 306.729 486.109 306.03C485.59 305.332 485.184 304.51 484.913 303.61C484.643 302.711 484.513 301.752 484.532 300.789C484.551 299.825 484.718 298.876 485.023 297.995C485.329 297.114 485.767 296.319 486.312 295.655C486.857 294.991 487.5 294.471 488.202 294.125C488.905 293.778 489.653 293.612 490.406 293.637C490.752 293.635 491.097 293.681 491.436 293.774C491.804 293.264 492.252 292.858 492.75 292.583C493.248 292.308 493.785 292.169 494.328 292.176L518.504 292.976C518.705 292.985 518.904 293.017 519.1 293.07C519.631 293.197 520.133 293.467 520.575 293.864C521.017 294.26 521.387 294.773 521.661 295.367C521.935 295.962 522.106 296.625 522.163 297.312C522.22 297.999 522.162 298.693 521.991 299.348L517.79 338.863ZM492.176 305.58L490.594 298.324C490.414 297.486 490.41 296.602 490.582 295.761C490.505 295.761 490.437 295.714 490.36 295.714C489.275 295.685 488.225 296.208 487.441 297.169C486.657 298.13 486.202 299.45 486.177 300.839C486.151 302.228 486.557 303.574 487.306 304.58C488.054 305.587 489.083 306.173 490.168 306.209C490.87 306.237 491.564 306.02 492.176 305.58Z" fill="#2F2E41"/>
<path id="symbolLeft" d="M508.618 322.219C508.656 322.208 508.692 322.191 508.725 322.168L512.812 319.272C512.862 319.237 512.902 319.19 512.93 319.134C512.958 319.077 512.973 319.015 512.973 318.951C512.973 318.887 512.959 318.824 512.931 318.768C512.902 318.712 512.862 318.664 512.812 318.629L508.564 315.618C508.525 315.59 508.481 315.571 508.436 315.561C508.39 315.551 508.342 315.552 508.297 315.562C508.251 315.572 508.207 315.592 508.169 315.62C508.13 315.649 508.097 315.685 508.071 315.728C508.046 315.77 508.028 315.817 508.019 315.867C508.011 315.917 508.011 315.968 508.021 316.017C508.03 316.067 508.049 316.114 508.075 316.156C508.102 316.197 508.136 316.233 508.175 316.261L511.969 318.95L508.336 321.524C508.266 321.574 508.214 321.649 508.19 321.737C508.166 321.824 508.171 321.917 508.205 322.001C508.239 322.084 508.299 322.151 508.375 322.191C508.45 322.231 508.536 322.241 508.618 322.219H508.618Z" fill="#6C63FF"/>
<path id="symbolRight" d="M502.162 322.541C502.231 322.522 502.292 322.482 502.34 322.424C502.387 322.367 502.417 322.296 502.427 322.22C502.436 322.145 502.425 322.067 502.394 321.999C502.362 321.93 502.313 321.873 502.252 321.835L498.484 319.497L502.126 316.57C502.163 316.54 502.194 316.502 502.218 316.459C502.242 316.415 502.258 316.367 502.265 316.317C502.272 316.268 502.269 316.217 502.258 316.168C502.247 316.119 502.227 316.073 502.199 316.032C502.171 315.992 502.136 315.958 502.096 315.932C502.056 315.906 502.012 315.889 501.966 315.881C501.919 315.874 501.872 315.877 501.827 315.889C501.782 315.901 501.739 315.923 501.702 315.953L497.625 319.231C497.578 319.269 497.54 319.319 497.515 319.376C497.49 319.434 497.479 319.498 497.482 319.562C497.485 319.625 497.504 319.687 497.535 319.741C497.566 319.796 497.609 319.841 497.66 319.872L501.898 322.502C501.978 322.551 502.073 322.565 502.162 322.541V322.541Z" fill="#6C63FF"/>
<path id="symboMiddle" d="M508.211 324.756C508.246 324.747 508.278 324.732 508.308 324.712C508.348 324.685 508.383 324.651 508.411 324.61C508.438 324.569 508.458 324.523 508.469 324.474C508.48 324.425 508.482 324.374 508.475 324.324C508.468 324.274 508.452 324.226 508.427 324.183L502.633 313.874C502.584 313.787 502.505 313.724 502.414 313.701C502.322 313.677 502.226 313.693 502.145 313.746C502.065 313.799 502.007 313.884 501.985 313.983C501.963 314.082 501.978 314.187 502.026 314.274L507.82 324.583C507.86 324.654 507.919 324.708 507.99 324.739C508.06 324.77 508.138 324.776 508.211 324.756Z" fill="#6C63FF"/>
</g>
<path id="body" d="M206.537 289.751L206.691 290.277L206.699 290.295L211.335 305.548L216.668 323.125L226.702 356.157L226.799 361.289V361.306L227.544 402.583L225.478 408.179L227.804 417.354C227.804 417.354 226.734 403.486 220.996 411.45C217.746 415.976 213.945 420.607 210.825 424.949C215.371 426.94 219.991 428.741 224.683 430.352C225.697 430.703 226.718 431.036 227.739 431.369C227.958 431.439 228.177 431.51 228.395 431.58C243.951 436.558 260.032 439.356 276.245 439.904C277.088 439.93 277.915 439.947 278.717 439.965C279.001 439.974 279.276 439.982 279.552 439.982C280.46 439.991 281.359 440 282.267 440C284.099 440 285.922 439.971 287.737 439.912C301.174 439.502 314.533 437.547 327.588 434.079C327.499 428.247 327.256 421.431 326.907 414.151C326.745 410.582 323.106 406.713 322.887 402.977C322.733 400.17 325.999 397.53 325.829 394.679C324.727 377.128 323.349 383.866 322.328 371.437C322.223 370.218 322.125 369.051 322.036 367.937C321.38 359.955 320.926 354.965 320.926 354.965L325.286 325.222L332.135 278.524L331.608 277.585L331.016 277.27L294.894 257.92L292.933 252.482C292.361 250.915 291.37 249.57 290.086 248.618C288.802 247.666 287.284 247.151 285.728 247.14L261.932 247.035C260.697 247.029 259.479 247.342 258.378 247.948C257.277 248.553 256.326 249.434 255.603 250.517L249.159 260.174L206.537 289.751Z" fill="#3F3D56"/>
<g id="rightArm">
<path id="forArm" d="M413.733 361.476L404.249 344.208L434.018 316.874L446.306 301.194C447.902 299.157 449.935 297.638 452.201 296.789C454.466 295.94 456.886 295.791 459.217 296.357C461.548 296.922 463.71 298.183 465.486 300.012C467.262 301.841 468.59 304.175 469.337 306.781C470.445 310.642 470.207 314.848 468.673 318.511C467.139 322.174 464.43 325.008 461.117 326.413L441.687 334.658L413.733 361.476Z" fill="#FFB6B6"/>
<path id="arm" d="M344.622 353.677L367.085 357.561L374.911 358.908L421.528 378.55L427.639 377.596L413.652 364.701L414.017 362.992L420.544 332.139L452.035 341.7C449.588 337.87 446.053 334.749 442.028 332.865C438.004 330.981 433.737 330.45 429.949 331.362C429.155 331.559 428.417 331.676 427.925 331.352C398.143 312.096 342.597 279.401 313.021 280.15C303.633 280.391 295.168 278.759 288.239 279.764C288.219 279.768 288.205 279.759 288.199 279.772L265.15 278.336L263.736 278.245L263.026 278.694L344.622 353.677Z" fill="#3F3D56"/>
</g>
<g id="head">
<path id="face" d="M271.011 249.861C288.271 249.861 302.263 233.873 302.263 214.15C302.263 194.427 288.271 178.438 271.011 178.438C253.751 178.438 239.759 194.427 239.759 214.15C239.759 233.873 253.751 249.861 271.011 249.861Z" fill="#FFB6B6"/>
<path id="hair" d="M310.947 200.043C310.705 199.748 310.413 199.511 310.089 199.347C309.765 199.183 309.415 199.096 309.061 199.09L309.531 197.599C309.684 197.129 309.725 196.622 309.651 196.128C309.576 195.634 309.387 195.172 309.105 194.788C308.822 194.405 308.455 194.115 308.042 193.947C307.629 193.779 307.184 193.739 306.753 193.832L305.042 194.209L305.203 192.902C305.265 192.416 305.215 191.919 305.058 191.462C304.901 191.004 304.642 190.601 304.308 190.292C303.973 189.983 303.574 189.779 303.149 189.7C302.724 189.621 302.289 189.669 301.886 189.841C301.519 190.006 301.124 190.075 300.731 190.043C300.338 190.011 299.956 189.879 299.613 189.656C299.269 189.441 298.97 189.142 298.738 188.781C298.505 188.419 298.344 188.004 298.266 187.565L297.67 184.279L297.607 184.102C294.703 178.572 289.12 174.549 282.289 173.074C276.208 171.752 269.973 172.425 263.962 173.058C261.577 173.315 258.884 173.603 256.64 175.174C254.732 176.521 253.119 179.213 253.448 181.93C247.522 179.855 241.167 183.998 238.018 189.224C234.287 195.443 233.676 203.233 233.578 209.324C233.312 223.734 235.914 235.524 241.293 244.372C241.686 245.013 241.784 246.352 242.563 246.8L242.402 246.504C243.271 247.001 244.155 247.802 243.825 248.66C242.878 251.128 249.17 256.586 253.603 258.389C261.689 261.683 272.442 261.403 280.003 260.217L280.269 258.173C282.997 257.748 284.919 256.939 285.459 255.672C286.413 254.743 287.227 253.909 287.935 253.14L287.942 253.132C287.956 253.116 287.984 253.092 287.998 253.076C291.414 249.333 292.207 247.201 292.564 243.955C292.908 240.773 292.298 237.544 291.674 234.634C304.817 236.958 286.497 218.637 298.743 215.095C298.884 215.045 299.027 215.005 299.171 214.975C299.529 214.878 299.887 214.782 300.23 214.67C301.887 214.156 303.473 213.382 304.944 212.37C308.366 209.989 309.496 206.832 311.263 203.273C311.518 202.767 311.625 202.18 311.568 201.599C311.511 201.018 311.294 200.473 310.947 200.043V200.043Z" fill="#2F2E41"/>
</g>
<path id="chair" d="M386.482 354.792C386.475 356.137 386.461 358.021 386.404 360.351C386.397 360.673 386.39 361.004 386.382 361.342C386.29 365.625 386.198 369.216 386.049 373.206C386.041 373.483 386.034 373.752 386.02 374.029C385.821 379.596 385.509 386.077 384.969 396.342C383.967 415.303 382.219 398.949 380.464 405.599C380.379 405.93 380.287 406.322 380.201 406.784C379.936 408.457 379.487 410.091 378.866 411.651C377.935 412.25 376.976 412.827 376.031 413.404C373.339 415.026 370.603 416.587 367.847 418.071C366.298 418.901 364.742 419.716 363.179 420.5C362.93 420.623 362.689 420.746 362.447 420.862C354.443 424.868 346.195 428.275 337.759 431.057C336.111 431.595 334.47 432.118 332.807 432.603C331.074 433.125 329.34 433.618 327.585 434.079C314.531 437.547 301.173 439.504 287.736 439.915C285.924 439.976 284.098 439.999 282.265 439.999C281.356 439.999 280.461 439.992 279.551 439.984C279.274 439.984 278.997 439.976 278.72 439.969C277.917 439.945 277.086 439.93 276.248 439.907C260.034 439.36 243.953 436.561 228.399 431.58L227.738 431.372C226.715 431.034 225.699 430.703 224.683 430.35C219.994 428.743 215.374 426.944 210.822 424.952C207.348 423.438 203.914 421.813 200.52 420.078C200.489 420.068 200.46 420.053 200.435 420.031C199.725 419.678 199.007 419.309 198.297 418.932C198.204 418.878 198.105 418.824 198.005 418.77C195.355 417.371 192.734 415.905 190.141 414.372C187.96 408.952 184.89 407.914 182.986 403.147C182.432 401.73 182.032 400.249 181.793 398.733C181.793 398.718 181.786 398.702 181.786 398.679C181.985 401.54 180.94 393.605 181.779 398.649C181.771 398.556 181.764 398.456 181.757 398.341C181.736 398.064 181.708 397.726 181.665 397.303C179.228 371.553 179.384 342.105 178.326 317.839C178.255 316.27 178.181 314.768 178.106 313.333C178.084 312.857 178.056 312.388 178.027 311.926C178.077 311.788 178.134 311.642 178.198 311.503C178.212 311.463 178.228 311.425 178.248 311.388C178.269 311.34 178.292 311.294 178.319 311.25C178.333 311.227 178.354 311.196 178.368 311.173C178.379 311.146 178.391 311.121 178.404 311.096C178.468 310.988 178.539 310.873 178.617 310.765C178.653 310.719 178.681 310.681 178.717 310.642C178.741 310.603 178.77 310.567 178.802 310.535C178.824 310.498 178.85 310.464 178.88 310.435C178.908 310.404 178.937 310.365 178.972 310.327C178.987 310.303 179.007 310.282 179.029 310.265C179.085 310.196 179.147 310.131 179.214 310.073C179.467 309.821 179.738 309.589 180.024 309.381C180.123 309.312 180.23 309.243 180.329 309.166C181.045 308.702 181.799 308.311 182.581 307.997C182.851 307.89 183.121 307.79 183.413 307.682C183.519 307.651 183.619 307.613 183.725 307.574C183.882 307.521 184.038 307.467 184.201 307.428C185.011 307.167 185.885 306.944 186.83 306.736C186.944 306.713 187.064 306.69 187.185 306.659C187.356 306.621 187.533 306.59 187.711 306.559C187.952 306.513 188.201 306.467 188.45 306.421C190.56 306.06 192.954 305.791 195.597 305.614C195.846 305.598 196.094 305.583 196.343 305.568C196.634 305.552 196.925 305.537 197.224 305.521C197.473 305.506 197.728 305.498 197.984 305.491C198.233 305.475 198.488 305.468 198.751 305.46C199.469 305.437 200.208 305.414 200.961 305.398C203.106 305.352 205.366 305.368 207.739 305.421C208.84 305.452 209.962 305.483 211.113 305.537C211.191 305.537 211.262 305.544 211.334 305.544C212.335 305.583 213.344 305.629 214.381 305.691C215.106 305.729 215.838 305.767 216.57 305.814C217.259 305.86 217.955 305.906 218.658 305.96C219.205 305.99 219.752 306.037 220.307 306.075C220.775 306.113 221.244 306.152 221.713 306.183L222.353 306.229C222.701 306.26 223.049 306.283 223.404 306.321C224.186 306.39 224.967 306.459 225.763 306.529C226.551 306.606 227.354 306.682 228.157 306.759C228.96 306.836 229.77 306.921 230.58 307.005C230.665 307.013 230.743 307.021 230.821 307.028C231.56 307.113 232.299 307.19 233.045 307.274C233.216 307.29 233.393 307.305 233.564 307.328C234.275 307.406 235 307.496 235.718 307.579C235.938 307.604 236.157 307.629 236.378 307.655C236.94 307.722 237.495 307.779 238.061 307.851C238.807 307.943 239.567 308.028 240.306 308.136C240.881 308.205 241.457 308.274 242.032 308.351C242.934 308.466 243.851 308.589 244.767 308.72C245.116 308.766 245.464 308.812 245.812 308.866C248.426 309.22 251.069 309.612 253.755 310.019C257.826 310.642 261.96 311.319 266.124 312.049C270.294 312.78 274.488 313.551 278.706 314.364C279.772 314.571 280.837 314.779 281.91 314.994C282.393 315.094 282.876 315.194 283.359 315.294C284.183 315.455 285.008 315.625 285.832 315.794C286.656 315.963 287.48 316.132 288.304 316.309C289.285 316.516 290.272 316.724 291.252 316.932C297.711 318.316 304.133 319.792 310.399 321.337C311.429 321.591 312.46 321.852 313.483 322.106C315.529 322.621 317.556 323.144 319.564 323.675C320.118 323.813 320.665 323.959 321.212 324.105C322.576 324.474 323.941 324.843 325.283 325.22L325.518 325.289C326.505 325.551 327.471 325.82 328.438 326.097C330.718 326.743 332.961 327.396 335.166 328.057C336.629 328.496 338.076 328.939 339.507 329.388C341.645 330.056 343.741 330.733 345.78 331.417C346.284 331.587 346.789 331.756 347.286 331.917C348.778 332.417 350.249 332.924 351.677 333.432C352.813 333.832 353.922 334.239 355.016 334.647C356.11 335.054 357.183 335.462 358.234 335.869C358.909 336.131 359.577 336.407 360.245 336.669C361.204 337.053 362.149 337.438 363.072 337.822C363.357 337.938 363.634 338.061 363.911 338.176C364.088 338.26 364.259 338.33 364.429 338.407C364.763 338.553 365.104 338.691 365.431 338.837C365.765 338.976 366.092 339.122 366.419 339.275C366.738 339.414 367.065 339.56 367.378 339.706C367.697 339.844 368.01 339.99 368.323 340.144C368.586 340.26 368.841 340.383 369.09 340.506C369.594 340.744 370.099 340.982 370.589 341.228C370.831 341.351 371.072 341.467 371.314 341.59L371.868 341.867C371.946 341.913 372.024 341.951 372.102 341.99C372.28 342.082 372.465 342.182 372.642 342.274C373.054 342.482 373.459 342.705 373.857 342.912C374.39 343.204 374.909 343.497 375.406 343.781C375.91 344.073 376.401 344.365 376.869 344.65C376.948 344.696 377.019 344.742 377.097 344.788C377.203 344.85 377.31 344.919 377.416 344.981C377.779 345.204 378.127 345.434 378.475 345.657C379.157 346.111 379.804 346.557 380.407 347.003C380.542 347.103 380.67 347.203 380.805 347.295C381.253 347.641 381.679 347.979 382.077 348.325C382.077 348.333 382.077 348.333 382.084 348.333C382.219 348.44 382.347 348.556 382.475 348.663C382.581 348.771 382.695 348.863 382.802 348.971C383.171 349.317 383.512 349.648 383.825 349.986C383.93 350.09 384.029 350.201 384.123 350.317C384.165 350.354 384.203 350.395 384.237 350.44C384.379 350.593 384.507 350.747 384.628 350.901C384.646 350.922 384.663 350.945 384.677 350.97C384.848 351.185 385.004 351.401 385.153 351.616C385.224 351.724 385.303 351.831 385.366 351.939C385.452 352.07 385.537 352.208 385.608 352.339C385.672 352.446 385.729 352.562 385.786 352.669C385.936 352.946 386.065 353.237 386.169 353.538C386.249 353.742 386.313 353.953 386.361 354.169C386.415 354.373 386.455 354.581 386.482 354.792V354.792Z" fill="#2F2E41"/>
</g>
<defs>
<clipPath id="clip0_2_2">
<rect width="559" height="440" fill="white"/>
</clipPath>
</defs>
</svg>
