<svg viewBox="0 0 441 465" xmlns="http://www.w3.org/2000/svg">
<g id="about-svg">
<path id="note-top1" d="M320.122 251.222C317.694 238.6 318.102 226.169 322.266 213.991C322.311 213.237 322.595 212.536 323.056 212.041C323.518 211.546 324.12 211.298 324.729 211.35L347.473 213.35C348.083 213.405 348.65 213.756 349.05 214.327C349.451 214.897 349.652 215.641 349.609 216.395L347.464 253.626C347.42 254.38 347.136 255.081 346.674 255.576C346.213 256.071 345.611 256.319 345.001 256.266L322.257 254.266C321.648 254.212 321.081 253.861 320.68 253.29C320.28 252.719 320.079 251.976 320.122 251.222V251.222Z" />
<path id="note-bottom2" d="M321.823 243.172C324.085 230.518 328.914 219.119 337.145 209.384C337.456 208.7 337.971 208.157 338.577 207.872C339.183 207.588 339.832 207.586 340.379 207.867L360.802 218.375C361.349 218.658 361.751 219.2 361.918 219.883C362.086 220.565 362.006 221.333 361.697 222.017L346.374 255.806C346.064 256.489 345.549 257.033 344.942 257.317C344.336 257.602 343.688 257.604 343.14 257.323L322.717 246.814C322.17 246.531 321.769 245.989 321.601 245.307C321.433 244.624 321.513 243.856 321.823 243.172V243.172Z"/>
<path id="note-bottom1" d="M328.409 236.709C337.605 228.007 348.119 221.901 360.377 219.233C361.024 218.88 361.753 218.765 362.403 218.914C363.053 219.063 363.572 219.464 363.845 220.028L374.017 241.09C374.289 241.655 374.293 242.337 374.028 242.986C373.764 243.635 373.252 244.199 372.605 244.553L340.637 262.03C339.99 262.383 339.261 262.498 338.611 262.349C337.961 262.2 337.442 261.799 337.169 261.235L326.997 240.173C326.725 239.608 326.721 238.926 326.986 238.277C327.251 237.627 327.762 237.064 328.409 236.709V236.709Z"/>
<path id="note-bottom0" d="M327.317 245.123C331.761 233.098 338.51 222.787 348.312 214.746C348.738 214.131 349.34 213.692 349.986 213.526C350.632 213.359 351.27 213.478 351.759 213.856L370.003 227.996C370.491 228.376 370.791 228.984 370.836 229.687C370.882 230.389 370.669 231.13 370.244 231.745L349.249 262.122C348.824 262.737 348.222 263.176 347.576 263.342C346.929 263.509 346.292 263.39 345.802 263.012L327.558 248.871C327.07 248.492 326.77 247.884 326.725 247.181C326.68 246.478 326.893 245.738 327.317 245.123V245.123Z"/>
<g id="body-everything">
<g id="head">
<path id="face" d="M121.126 87.447C137.075 87.4503 150.007 72.4496 150.011 53.9419C150.015 35.4343 137.089 20.4282 121.14 20.4249C105.192 20.4216 92.2597 35.4224 92.2559 53.93C92.2521 72.4377 105.178 87.4437 121.126 87.447Z"/>
<path id="hair" d="M158.141 46.4873C154.962 47.7069 151.897 48.4256 149.83 45.2011C147.763 41.9765 148.304 38.2901 145.228 36.7352C142.745 35.4759 139.878 36.0148 137.373 37.1832C136.927 37.3886 136.49 37.6197 136.064 37.8508C135.825 37.5939 135.586 37.3499 135.326 37.1185C133.372 35.3995 130.959 34.6727 128.584 35.0877C130.319 36.1247 131.748 37.81 132.666 39.9054C131.814 40.4318 130.898 40.8252 130.079 41.4077C118.815 49.4103 106.289 52.6316 107.314 39.2708C110.72 50.3695 108.069 54.3252 103.07 64.459L102.872 65.0498C103.371 62.391 99.865 62.2643 96.8359 63.1732C94.5985 63.8445 96.045 70.2923 98.9115 74.7341C92.5032 62.7997 82.9052 44.5784 91.2101 35.4396C92.4349 34.0917 93.2038 32.1898 93.4248 27.3219C93.5559 24.4357 97.5297 23.7133 99.6282 24.9983C99.9329 20.6585 101.161 16.4955 103.187 12.9316C105.213 9.3677 107.966 6.52969 111.166 4.7055C117.587 1.17444 124.117 6.60965 131.093 7.66395C134.964 8.24892 137.9 10.177 138.053 16.2844C138.155 20.3516 143.112 21.8088 146.353 22.5288C148.411 22.9789 150.728 22.7096 152.369 24.3155C154.27 26.1785 154.29 29.4539 154.279 32.601C152.419 32.535 150.585 33.1562 149.011 34.3853C150.937 34.4455 152.798 35.255 154.33 36.6985C154.36 36.7211 154.388 36.7469 154.413 36.7756C154.973 42.068 154.744 43.1855 158.141 46.4873Z"/>
</g>
<g id="whole-body">
<path id="pants" d="M195.842 425.115L133.953 425.103C129.148 409.977 125.813 399.159 125.813 399.159C125.813 399.159 125 409.754 123.84 425.101L67.8894 425.089C67.3744 383.386 66.6501 340.566 66.4116 326.967L173.805 330.016L184.484 347.159C184.52 347.446 184.556 347.761 184.602 348.118C185.034 351.601 190.841 388.986 195.842 425.115Z"/>
<path id="body" d="M199.384 121.148L199.372 121.123C198.982 120.288 198.355 119.633 197.596 119.269C189.834 112.319 181.336 109.15 171.797 111.314C170.236 105.86 168.78 105.86 168.78 105.86L148.093 97.9726L145.122 77.0022L94.1486 75.0013L89.5107 101.168C89.5107 101.168 61.0178 107.055 61.0169 111.316C61.0161 115.577 65.7647 115.578 61.0161 115.577C56.2675 115.576 54.9969 110.706 50.8857 115.575C50.5335 115.984 50.1617 116.37 49.7722 116.731C49.7247 116.78 49.6719 116.822 49.6244 116.871C44.9784 121.085 41.3269 126.581 39.0065 132.851C36.6861 139.122 35.7716 145.966 36.3473 152.751L45.0904 253.329L54.423 360.651L182.444 366.825L191.037 275.504L199.79 123.559C199.868 122.726 199.726 121.886 199.384 121.148V121.148Z"/>
</g>
<g id="arm-hand-tablet">
<path id="-arm-tablet" d="M52.8436 253.176L64.0668 259.382C58.813 264.68 50.8096 271.811 42.961 275.123L30.4479 264.635C25.7372 242.479 28.5237 219.626 34.0602 200.293C37.1275 189.55 41.2059 179.291 46.2115 169.727C45.6785 163.229 46.4771 156.671 48.5337 150.658C50.5904 144.645 53.8389 139.37 57.9798 135.32C58.0269 135.274 58.0692 135.233 58.1115 135.186C62.259 139.61 65.6518 145.012 68.0914 151.075C70.531 157.139 71.9683 163.741 72.3193 170.497L72.5832 175.604L73.1106 185.666L74.4492 211.365L59.4825 240.329L52.8436 253.176Z"/>
<path id="tablet" d="M55.8155 205.3L56.062 295.886C56.0656 297.041 56.2847 298.147 56.6713 298.962C57.0579 299.777 57.5804 300.235 58.124 300.234L121.338 300.05C121.881 300.048 122.401 299.587 122.783 298.77C123.166 297.953 123.379 296.845 123.376 295.691L123.129 205.104C123.125 203.951 122.905 202.846 122.519 202.032C122.132 201.218 121.611 200.761 121.067 200.761L57.8538 200.945C57.3107 200.948 56.7912 201.408 56.4091 202.224C56.0271 203.04 55.8136 204.146 55.8155 205.3V205.3Z" />
<path id="left-hand" d="M67.6626 261.565C67.0503 263.076 66.1795 264.405 65.1105 265.46C64.0415 266.514 62.7997 267.268 61.4712 267.67C60.1426 268.073 58.7589 268.113 57.4158 267.79C56.0727 267.466 54.8023 266.785 53.6923 265.795L19.8376 285.842L17.5331 274.1L51.9974 248.841C53.4828 246.657 55.5652 245.223 57.85 244.811C60.1348 244.4 62.4633 245.038 64.3943 246.607C66.3252 248.175 67.7244 250.564 68.3268 253.321C68.9292 256.078 68.6929 259.011 67.6626 261.565L67.6626 261.565Z"/>
<path id="left-arm" d="M54.4309 201.008L30.7345 261.35L40.8028 255.67L47.8102 251.714L51.3736 268.228C51.3736 268.228 49.0513 271.034 45.3872 274.724C40.1333 280.022 32.13 287.153 24.2814 290.464C18.1381 293.059 12.097 293.316 7.54673 288.524C-1.09031 279.43 7.22998 243.191 15.2908 215.593C20.688 197.111 25.9638 182.513 25.9638 182.513C25.9108 163.039 56.4059 134.947 62.0693 131.099C65.3036 128.909 66.2082 132.083 66.2082 132.083L48.5156 164.314L53.9036 190.945L55.4286 198.468L54.4309 201.008Z"/>
</g>
<g id="arm-hand">
<path id="handNumber" d="M326.907 261.473C325.595 261.933 324.218 262.031 322.871 261.76C321.525 261.489 320.242 260.856 319.109 259.904C317.977 258.953 317.024 257.705 316.314 256.248C315.605 254.79 315.157 253.158 315.002 251.464L270.03 234.671L270.668 217.98L323.966 238.413C326.266 238.302 328.519 239.25 330.299 241.076C332.079 242.903 333.262 245.482 333.625 248.324C333.987 251.167 333.504 254.075 332.265 256.498C331.027 258.922 329.121 260.692 326.907 261.473L326.907 261.473Z"/>
<path id="armNumber" d="M175.129 175.6C170.19 170.864 177.314 147.275 175.346 140.453C175.229 140.04 175.117 139.626 175.011 139.21C174.788 138.33 174.834 137.388 175.141 136.542L193.376 126.527C198.144 128.761 202.542 131.936 206.372 135.911L234.729 173.113L262.872 202.316L275.197 208.618L316.042 229.51L315.624 230.922L315.621 230.926L311.193 246.006L311.193 246.014L320.183 253.213L290.815 248.207L271.372 239.013L252.65 230.163C224.986 211.046 179.547 201.253 175.129 175.6Z"/>
</g>
</g>
</g>
</svg>
