<svg width="294" height="742" viewBox="0 0 294 742" fill="none" xmlns="http://www.w3.org/2000/svg">
<path d="M158.32 82.2522C158.32 82.2522 167.865 113.613 162.411 123.158C156.957 132.703 171.956 153.158 196.499 143.611C221.042 134.064 222.406 123.158 222.406 123.158C222.406 123.158 212.861 108.158 210.134 76.7982L158.32 82.2522Z" fill="#FFB9B9"/>
<path d="M33.5568 389.73C33.5568 389.73 -15.5301 414.274 6.28685 446.998C18.9679 466.02 43.1658 503.008 61.2078 530.65C76.3077 553.783 87.8881 579.031 95.5698 605.566L99.0069 617.439L112.645 633.797L141.279 601.072C141.279 601.072 99.0098 523.351 99.0098 508.352C99.0098 493.353 64.9179 445.63 64.9179 445.63L99.0059 423.814C99.0059 423.814 60.8268 380.182 33.5568 389.73Z" fill="#FFB9B9"/>
<path d="M193.09 474.265C193.09 474.265 194.457 512.443 195.817 527.443C196.942 539.817 186.002 574.464 189.795 613.009C192.11 637.946 191.833 663.056 188.969 687.936L183.545 737.426L224.451 741.517L238.086 629.708C238.086 629.708 246.267 550.624 242.177 524.717L243.54 470.176C243.54 470.176 213.543 459.266 193.09 474.265Z" fill="#FFB9B9"/>
<path d="M120.141 315.415C120.141 315.415 24.6888 376.773 23.3298 395.863C23.3298 395.863 77.8708 390.409 79.2298 438.132C79.2298 438.132 111.955 425.86 120.136 423.132C128.317 420.404 171.95 391.771 171.95 391.771C171.95 391.771 189.676 405.406 189.676 427.223C189.676 449.04 188.312 487.223 189.676 489.945C191.04 492.667 222.401 453.13 248.308 487.218L266.038 393.133C266.038 393.133 271.492 335.865 260.584 331.774L184.226 303.143L120.141 315.415Z" fill="#2F2E41"/>
<path d="M178.091 99.2972C200.683 99.2972 218.997 80.983 218.997 58.3912C218.997 35.7994 200.683 17.4852 178.091 17.4852C155.499 17.4852 137.185 35.7994 137.185 58.3912C137.185 80.983 155.499 99.2972 178.091 99.2972Z" fill="#FFB9B9"/>
<path d="M167.864 129.975C167.864 129.975 214.004 142.161 220.249 119.024C220.249 119.024 276.949 129.975 286.49 166.79C296.031 203.605 263.31 292.234 263.31 294.961C263.31 297.688 275.582 345.412 267.401 348.139C259.22 350.866 210.133 308.597 171.954 319.505C133.775 330.413 114.686 322.232 114.686 322.232L97.5679 174.273C96.8997 168.605 97.6618 162.859 99.7844 157.561C101.907 152.263 105.323 147.58 109.72 143.941C118.265 136.908 129.603 129.309 140.595 127.248C162.411 123.157 163.318 120.918 163.318 120.918L167.864 129.975Z" fill="#3F3D56"/>
<path d="M124.236 368.59C124.236 368.59 136.508 438.13 152.87 428.59C169.232 419.05 148.779 368.59 148.779 368.59H124.236Z" fill="#FFB9B9"/>
<path d="M181.192 377.59C181.192 377.59 159.929 444.93 178.851 444.03C197.773 443.13 202.956 388.939 202.956 388.939L181.192 377.59Z" fill="#FFB9B9"/>
<path d="M142.392 23.7282C142.392 23.7282 155.551 -4.78284 180.772 1.79616C205.993 8.37516 220.249 18.2452 221.345 28.1142C222.441 37.9832 220.797 52.7872 220.797 52.7872C220.797 52.7872 218.055 32.5002 200.51 36.8872C182.965 41.2742 155.55 37.9872 155.55 37.9872L151.164 77.4642C151.164 77.4642 146.229 70.3362 140.747 74.7232C135.265 79.1102 124.848 32.5012 142.392 23.7282Z" fill="#2F2E41"/>
<path d="M263.311 165.426C263.311 165.426 230.586 254.055 233.311 264.963C236.036 275.871 233.311 277.235 229.22 279.963C225.129 282.691 214.22 311.324 214.22 311.324C214.22 311.324 171.951 383.591 174.678 384.954C177.405 386.317 196.494 401.316 201.949 399.954C207.404 398.592 203.313 380.865 211.494 378.138C219.675 375.411 248.309 357.685 257.854 335.869C267.399 314.053 312.554 178.255 284.917 159.713C284.919 159.711 274.219 149.064 263.311 165.426Z" fill="#3F3D56"/>
<path d="M111.96 150.432L111.406 150.663C106.255 152.811 101.706 156.182 98.151 160.484C94.5964 164.785 92.1439 169.889 91.0059 175.352C88.0289 189.603 85.0989 210.215 87.4149 229.516C91.5059 263.604 94.2329 278.603 99.6869 289.516C105.141 300.429 116.053 352.232 117.414 354.956C118.775 357.68 122.868 378.136 122.868 378.136C122.868 378.136 144.684 371.318 156.956 374.045C156.956 374.045 146.048 354.956 148.775 350.865C151.502 346.774 141.957 288.143 141.957 288.143L111.96 150.432Z" fill="#3F3D56"/>
</svg>
